<?xml version="1.0" encoding="iso-8859-1"?>
<!-- Generator: Adobe Illustrator 19.0.0, SVG Export Plug-In . SVG Version: 6.00 Build 0)  -->
<svg version="1.1" id="Capa_1" xmlns="http://www.w3.org/2000/svg" xmlns:xlink="http://www.w3.org/1999/xlink" x="0px" y="0px"
	 viewBox="0 0 512.001 512.001" style="enable-background:new 0 0 512.001 512.001;" xml:space="preserve">
<path style="fill:#06638D;" d="M329.738,476.322c-4.299,0-7.783-3.485-7.783-7.783s3.484-7.783,7.783-7.783
	c14.763-0.474,12.204,0.981,22.414-1.072c20.162-4.081,47.633-17.978,58.809-35.691c5.203-8.236,8.21-18.356,8.142-28.823
	c-25.216,9.766-51.777,6.08-60.158-12.767c-7.222-16.257,4.818-35.895,21.863-39.922c19.525-4.636,40.495,8.53,49.176,29.187
	c18.566-13.327,30.795-34.543,31.88-56.271c0.214-4.293,3.829-7.594,8.161-7.386c4.293,0.215,7.6,3.869,7.385,8.162
	c-1.41,28.261-18.19,55.721-43.232,71.414c1.92,15.436-1.834,31.705-10.054,44.715c-12.014,19.04-42.673,39.229-76.553,43.944
	C346.576,476.387,347,476.297,329.738,476.322z M384.395,357.628c-6.409,1.513-12.023,8.336-12.023,14.603
	c0,12.911,21.984,16.882,43.955,7.245C410.096,362.494,395.031,355.102,384.395,357.628z"/>
<path style="fill:#65B1CF;" d="M404.577,112.408h-164.04c-15.696,0-28.539-12.842-28.539-28.539V68.123
	c0-15.696,12.842-28.539,28.539-28.539h164.041c15.696,0,28.539,12.842,28.539,28.539v15.746
	C433.116,99.565,420.274,112.408,404.577,112.408z"/>
<path style="fill:#7FBED7;" d="M497.832,85.344l-51.971,30.012l-4.483,2.584l-56.455,32.596c-7.202,4.151-16.2-1.038-16.2-9.35
	V10.811c0-8.313,8.997-13.501,16.2-9.35l24.595,14.197l31.86,18.4l56.455,32.586C505.024,70.805,505.024,81.193,497.832,85.344z"/>
<path style="fill:#D63030;" d="M474.687,285.46h-164.04c-15.696,0-28.539-12.842-28.539-28.539v-15.746
	c0-15.696,12.842-28.539,28.539-28.539h164.041c15.696,0,28.539,12.842,28.539,28.539v15.746
	C503.226,272.617,490.383,285.46,474.687,285.46z"/>
<path style="fill:#F44545;" d="M346.495,183.859v130.375c0,8.313-8.997,13.501-16.189,9.35
	c-6.049-3.492-107.483-62.06-112.909-65.193c-7.192-4.151-7.192-14.539,0-18.69l56.455-32.596l32.607-18.825l23.848-13.771
	C337.497,170.358,346.495,175.547,346.495,183.859z"/>
<path style="fill:#06638D;" d="M346.89,460.86c-1.965,26.444-23.018,49.92-52.456,51.017c-19.648,0.731-39.182-1.793-57.813-7.345
	c-43.843-13.069-82.694-42.86-106.179-86.269L30.328,233.149C-2.948,171.611,3.586,99.222,41.111,45.556
	c10.041-14.37,25.04-22.116,40.439-23.452c7.722-0.674,15.547,0.251,22.904,2.765c23.876,8.164,31.25,28.145,32.534,29.769
	l19.534,36.132c10.395,19.214,3.244,43.225-15.982,53.62l-9.504,5.14c-31.037,16.781-42.597,55.563-25.805,86.611l63.708,117.797
	c16.792,31.048,55.575,42.597,86.623,25.805l9.492-5.14c19.226-10.395,43.237-3.233,53.632,15.982l21.647,40.027
	c0.308,0.571,0.616,1.154,0.903,1.736c0.057,0.114,0.114,0.24,0.171,0.354C345.907,441.897,347.575,451.55,346.89,460.86z"/>
<path style="fill:#1B87B3;" d="M341.406,432.702c-8.796,0.869-17.706,1.302-26.731,1.302
	c-150.159,0-271.897-121.726-271.897-271.897c0-51.211,14.153-99.108,38.771-140.003c7.722-0.674,15.547,0.251,22.904,2.765
	c23.876,8.164,31.25,28.145,32.534,29.769l19.534,36.132c10.395,19.214,3.244,43.225-15.982,53.62l-9.504,5.14
	c-31.037,16.781-42.597,55.563-25.805,86.611l63.708,117.797c16.792,31.048,55.575,42.597,86.623,25.805l9.492-5.14
	c19.226-10.395,43.237-3.233,53.632,15.982l21.647,40.027c0.308,0.571,0.616,1.154,0.903,1.736
	C341.292,432.462,341.349,432.587,341.406,432.702z"/>
<path style="fill:#A6D2E3;" d="M497.832,85.344l-51.971,30.012c-25.27-12.733-42.611-38.916-42.611-69.157
	c0-10.845,2.231-21.181,6.268-30.542l31.86,18.4l56.455,32.586C505.024,70.805,505.024,81.193,497.832,85.344z"/>
<path style="fill:#FB5858;" d="M310.65,214.473c0,31.382-17.331,58.717-42.953,72.966l-50.301-29.047
	c-7.192-4.151-7.192-14.539,0-18.69l56.455-32.596l32.607-18.825C309.176,196.51,310.65,205.32,310.65,214.473z"/>
<g>
</g>
<g>
</g>
<g>
</g>
<g>
</g>
<g>
</g>
<g>
</g>
<g>
</g>
<g>
</g>
<g>
</g>
<g>
</g>
<g>
</g>
<g>
</g>
<g>
</g>
<g>
</g>
<g>
</g>
</svg>
