<svg id="Layer_1" enable-background="new 0 0 512.001 512.001" height="512" viewBox="0 0 512.001 512.001" width="512" xmlns="http://www.w3.org/2000/svg"><g><g clip-rule="evenodd" fill-rule="evenodd"><path d="m446.039 252.724c-6.228-3.596-12.419-7.17-18.582-10.728-29.655-17.121-58.685-33.882-88.302-50.981l-21.32-12.309-1.834-1.059v64.349 50.001h130.038z" fill="#c68a86"/><path d="m256.251 61.5c12.551 0 16.673-8.658 23.238-3.856 6.852 5.013 12.072 12.092 14.691 20.269 3.018 9.404 12.362 15.016 21.821 13.645 1.087-.158 2.176-.407 3.257-.754 10.485-3.365 16.256-14.593 12.891-25.078-10.573-33.006-41.453-55.726-76.148-55.726s-65.574 22.721-76.148 55.726c-3.365 10.485 2.406 21.713 12.891 25.078 1.081.347 2.17.597 3.257.754 9.459 1.371 18.802-4.242 21.821-13.645 2.62-8.177 7.84-15.256 14.692-20.269 6.564-4.802 11.186 3.856 23.737 3.856z" fill="#faf7f6"/><path d="m279.489 57.645c-6.564-4.802-10.686 3.856-23.238 3.856-12.551 0-17.173-8.658-23.738-3.856-6.852 5.013-12.072 12.092-14.692 20.269-3.018 9.404-12.362 15.016-21.821 13.644v342.951c26.186 9.28 53.501 22.194 98.757 22.194h21.243v-365.145c-9.459 1.371-18.803-4.242-21.821-13.645-2.618-8.177-7.839-15.256-14.69-20.268zm-43.488 113.021c0-10.999 9.001-20 20-20s20 9 20 20v40.665h-40z" fill="#6d91ac"/><path d="m276.001 170.666c0-11-9.001-20-20-20s-20 9.001-20 20v40.665h40z" fill="#99ebfa"/><path d="m294.758 456.702c-45.255 0-72.57-12.914-98.757-22.194-14.684-5.203-29.012-9.264-45.951-9.264-35.311 0-50.081 28.531-84.087 31.25-1.701.136-3.451.208-5.254.208-8.766 0-21.348 0-28.06 0-12.457 0-22.65 10.192-22.65 22.65s10.192 22.65 22.65 22.65h446.702c12.458 0 22.65-10.192 22.65-22.65s-10.194-22.65-22.65-22.65h-33.313-130.037z" fill="#f5eeec"/><path d="m194.914 178.274 1.087-.628v-46.087l-1.087.628-34.546 19.945c-38.152 22.027-75.959 43.855-114.409 66.054-9.537 5.524-12.791 17.734-7.267 27.271 5.524 9.538 17.734 12.791 27.271 7.267 43.346-25.026 85.605-49.424 128.951-74.45z" fill="#faf7f6"/><path d="m339.155 191.014c35.773 20.653 70.689 40.812 106.884 61.71 9.537 5.524 21.747 2.271 27.271-7.267 5.524-9.537 2.271-21.747-7.267-27.271-41.142-23.753-81.042-46.79-121.743-70.289l-26.465-15.28-1.834-1.059v46.088z" fill="#faf7f6"/><path d="m84.545 241.996h111.456v-64.349l-1.087.628c-37.132 21.438-73.466 42.415-110.369 63.721z" fill="#c68a86"/><path d="m196.001 241.996h-111.456c-6.176 3.566-12.368 7.14-18.582 10.728v39.273h130.038z" fill="#ddb9b6"/><path d="m65.963 291.997h130.038v50.002h-130.038z" fill="#c68a86"/><path d="m65.963 342h130.038v50.001h-130.038z" fill="#ddb9b6"/><path d="m196.001 392.001h-130.038v64.493c34.006-2.719 48.776-31.25 84.087-31.25 16.938 0 31.267 4.061 45.951 9.264z" fill="#c68a86"/><path d="m316.001 392.001h130.038v64.701h-130.038z" fill="#c68a86"/><path d="m316.001 342h130.038v50.001h-130.038z" fill="#ddb9b6"/><path d="m316.001 291.997h130.038v50.002h-130.038z" fill="#c68a86"/><path d="m316.001 291.997h130.038v-39.273c-6.228-3.596-12.419-7.17-18.582-10.728h-111.456z" fill="#ddb9b6"/></g><g><path d="m120.443 185.187c5.523 0 10-4.478 10-10s-4.477-10-10-10h-.007c-5.523 0-9.996 4.478-9.996 10s4.48 10 10.003 10z"/><path d="m479.352 446.702h-23.312v-181.28c2.572-.004 5.163-.341 7.715-1.021 7.732-2.061 14.199-7.009 18.209-13.932 4.011-6.924 5.085-14.996 3.024-22.729-2.061-7.731-7.008-14.198-13.944-18.216l-145.044-83.739v-26.926c13.348-6.325 20.305-21.749 15.67-36.189-5.843-18.234-17.129-33.882-32.639-45.25-15.548-11.396-33.886-17.42-53.031-17.42s-37.482 6.023-53.031 17.421c-15.511 11.368-26.797 27.017-32.638 45.248-2.444 7.615-1.777 15.726 1.879 22.838 3.045 5.924 7.865 10.559 13.791 13.356v26.922l-31.585 18.236c-4.783 2.762-6.422 8.877-3.66 13.66 1.852 3.208 5.213 5.002 8.669 5.002 1.696 0 3.416-.433 4.991-1.342l21.585-12.462v22.994l-125.05 72.197c-2.301 1.334-4.983 1.691-7.553 1.005-2.57-.685-4.719-2.329-6.052-4.63-2.751-4.751-1.125-10.854 3.614-13.6l35.503-20.498c4.783-2.762 6.422-8.877 3.66-13.66s-8.878-6.423-13.66-3.66l-35.516 20.505c-14.293 8.279-19.187 26.644-10.908 40.937 4.01 6.925 10.477 11.872 18.209 13.933 2.553.68 5.142 1.017 7.715 1.022v181.279h-23.313c-18.004-.001-32.65 14.646-32.65 32.649s14.646 32.649 32.65 32.649h446.702c18.003 0 32.649-14.646 32.649-32.649s-14.646-32.65-32.649-32.65zm-153.352 0v-44.702l110.039.001v44.701zm-238.777-194.706 98.778-.001v30.001l-110.038.002v-23.501zm98.778 80.002-110.038.002v-30.002l110.038-.002zm-110.038 20.002 110.038-.002v30.002l-110.038.001zm0 50.001 110.038-.001v18.732c-11.162-3.255-22.782-5.488-35.95-5.488-21.241 0-36.188 9.063-49.376 17.059-8.33 5.051-15.926 9.638-24.712 12.218zm130.038 14.078h16.01c5.523 0 10-4.478 10-10s-4.477-10-10-10h-16.01v-295.202c9.742-2.418 18.057-9.67 21.344-19.913 1.788-5.581 5.298-10.642 9.953-14.389.524.22 1.122.486 1.623.711 3.752 1.678 9.423 4.214 17.33 4.214 8.008 0 13.59-2.584 17.285-4.294.384-.178.829-.384 1.245-.569 4.616 3.74 8.098 8.777 9.878 14.333 2.443 7.613 7.707 13.82 14.819 17.477 2.1 1.079 4.287 1.894 6.522 2.449v151.1h-15.126c-5.522 0-10 4.478-10 10s4.478 10 10 10h15.126v174.707h-11.243c-37.074 0-60.97-8.882-84.079-17.471-1.566-.582-3.123-1.159-4.678-1.732v-11.421zm230.039-157.581v23.5l-110.04-.002v-30.001l98.778.001zm-110.04 43.498 110.039.002v30.002l-110.039-.002zm0 50.002 110.04.002v30.001l-110.04-.001zm0-120.003v-37.029l64.137 37.03zm135.031-5.156c2.302 1.333 3.946 3.482 4.631 6.053.686 2.569.328 5.252-1.005 7.554-1.333 2.301-3.482 3.945-6.052 4.63-2.569.686-5.252.328-7.565-1.012l-125.04-72.191v-22.994zm-271.655-158.062c9.201-28.719 36.598-48.777 66.624-48.777 30.027 0 57.425 20.058 66.625 48.776.001.002.001.004.002.005 1.675 5.219-1.208 10.826-6.426 12.501-2.526.811-5.221.59-7.58-.624-2.361-1.214-4.108-3.274-4.918-5.797-3.21-10.017-9.713-18.997-18.311-25.287-3.43-2.51-6.773-3.362-9.813-3.362-4.302 0-7.994 1.709-10.446 2.845-2.832 1.311-5.278 2.443-8.882 2.443-3.639 0-6.199-1.146-9.165-2.472-4.579-2.048-12.246-5.476-20.477.545-8.599 6.291-15.102 15.271-18.309 25.283-1.675 5.218-7.282 8.105-12.5 6.426-2.528-.812-4.588-2.559-5.802-4.919-1.213-2.361-1.435-5.053-.622-7.586zm-3.375 163.218-64.136.001 64.136-37.029zm293.351 260.006h-446.702c-6.975 0-12.65-5.675-12.65-12.649s5.675-12.649 12.65-12.649h28.06c21.807 0 36.963-9.189 50.334-17.297 12.532-7.599 23.356-14.161 39.007-14.161 19.4 0 35.276 5.901 53.66 12.734 23.612 8.776 50.375 18.724 91.046 18.724h184.595c6.975 0 12.649 5.675 12.649 12.649s-5.674 12.649-12.649 12.649z"/><path d="m236.001 221.331h40c5.522 0 10-4.478 10-10v-40.665c0-16.542-13.458-30-30-30s-30 13.458-30 30v40.665c0 5.523 4.477 10 10 10zm10-50.665c0-5.514 4.486-10 10-10s10 4.486 10 10v30.665h-20z"/><path d="m251.074 316.204c5.523 0 10-4.478 10-10s-4.477-10-10-10h-15.126c-5.523 0-10 4.478-10 10s4.477 10 10 10z"/><path d="m248.438 120.665h15.126c5.522 0 10-4.478 10-10s-4.478-10-10-10h-15.126c-5.523 0-10 4.478-10 10s4.477 10 10 10z"/><path d="m260.886 351.705c-5.523 0-10 4.478-10 10s4.477 10 10 10h15.126c5.522 0 10-4.478 10-10s-4.478-10-10-10z"/></g></g></svg>